<svg width="24" height="25" viewBox="0 0 24 25" fill="none" xmlns="http://www.w3.org/2000/svg">
<path d="M16.5 6.05732H13.5C12.9477 6.05732 12.5 6.50484 12.5 7.05689V10.0556H16.5C16.6137 10.0531 16.7216 10.106 16.7892 10.1974C16.8568 10.2889 16.8758 10.4075 16.84 10.5154L16.1 12.7145C16.0318 12.9163 15.8431 13.0528 15.63 13.0543H12.5V20.5512C12.5 20.8272 12.2761 21.0509 12 21.0509H9.5C9.22386 21.0509 9 20.8272 9 20.5512V13.0543H7.5C7.22386 13.0543 7 12.8306 7 12.5546V10.5554C7 10.2794 7.22386 10.0556 7.5 10.0556H9V7.05689C9 4.84869 10.7909 3.05859 13 3.05859H16.5C16.7761 3.05859 17 3.28236 17 3.55838V5.55753C17 5.83356 16.7761 6.05732 16.5 6.05732Z" fill="white"/>
</svg>
