<svg width="24" height="25" viewBox="0 0 24 25" fill="none" xmlns="http://www.w3.org/2000/svg">
<path fill-rule="evenodd" clip-rule="evenodd" d="M16 3.05859H8C5.23858 3.05859 3 5.29622 3 8.05647V16.0531C3 18.8133 5.23858 21.0509 8 21.0509H16C18.7614 21.0509 21 18.8133 21 16.0531V8.05647C21 5.29622 18.7614 3.05859 16 3.05859ZM19.25 16.0538C19.2445 17.8457 17.7926 19.2969 16 19.3024H8C6.20735 19.2969 4.75549 17.8457 4.75 16.0538V8.05721C4.75549 6.26533 6.20735 4.81408 8 4.80859H16C17.7926 4.81408 19.2445 6.26533 19.25 8.05721V16.0538ZM16.75 8.30721C17.3023 8.30721 17.75 7.8595 17.75 7.30721C17.75 6.75493 17.3023 6.30721 16.75 6.30721C16.1977 6.30721 15.75 6.75493 15.75 7.30721C15.75 7.8595 16.1977 8.30721 16.75 8.30721ZM12 7.55668C9.51472 7.55668 7.5 9.57054 7.5 12.0548C7.5 14.539 9.51472 16.5529 12 16.5529C14.4853 16.5529 16.5 14.539 16.5 12.0548C16.5027 10.861 16.0294 9.71533 15.1849 8.8712C14.3404 8.02707 13.1943 7.55402 12 7.55668ZM9.25 12.0548C9.25 13.5729 10.4812 14.8036 12 14.8036C13.5188 14.8036 14.75 13.5729 14.75 12.0548C14.75 10.5366 13.5188 9.30594 12 9.30594C10.4812 9.30594 9.25 10.5366 9.25 12.0548Z" fill="white"/>
</svg>
