<svg width="24" height="25" viewBox="0 0 24 25" fill="none" xmlns="http://www.w3.org/2000/svg">
<path d="M21.9698 6.52084C21.4537 7.2089 20.83 7.80909 20.1226 8.29825C20.1226 8.47799 20.1226 8.65773 20.1226 8.84745C20.1282 12.1115 18.8239 15.2413 16.5019 17.5352C14.18 19.8291 11.0347 21.0952 7.77114 21.0497C5.8844 21.056 4.02183 20.6254 2.32932 19.7915C2.23806 19.7517 2.1792 19.6614 2.17955 19.5619V19.452C2.17955 19.3086 2.29578 19.1924 2.43916 19.1924C4.29377 19.1313 6.08222 18.4885 7.55147 17.3551C5.87279 17.3213 4.3624 16.3273 3.66731 14.7988C3.6322 14.7153 3.64313 14.6196 3.69616 14.5461C3.74918 14.4727 3.83663 14.4322 3.92692 14.4393C4.43711 14.4906 4.9524 14.4431 5.44464 14.2995C3.59151 13.915 2.1991 12.3772 1.99982 10.4951C1.99274 10.4048 2.03322 10.3173 2.10664 10.2643C2.18005 10.2113 2.2758 10.2003 2.35928 10.2354C2.85658 10.4548 3.39341 10.5703 3.93691 10.5749C2.31313 9.50963 1.61177 7.48337 2.22948 5.64212C2.29324 5.4632 2.44643 5.33103 2.63275 5.29418C2.81907 5.25732 3.01104 5.32121 3.13811 5.46238C5.32929 7.79347 8.34002 9.18255 11.5355 9.33674C11.4536 9.01027 11.4134 8.67476 11.4157 8.3382C11.4455 6.57339 12.538 5.00127 14.1815 4.35784C15.825 3.71441 17.6943 4.127 18.9144 5.40247C19.746 5.24411 20.55 4.96488 21.3008 4.57368C21.3558 4.53935 21.4255 4.53935 21.4805 4.57368C21.5148 4.62867 21.5148 4.69842 21.4805 4.75341C21.1169 5.58581 20.5025 6.28396 19.7232 6.75051C20.4056 6.6714 21.0761 6.51047 21.7201 6.2712C21.7744 6.23431 21.8456 6.23431 21.8999 6.2712C21.9453 6.29198 21.9793 6.33171 21.9927 6.37981C22.0062 6.42791 21.9978 6.4795 21.9698 6.52084Z" fill="white"/>
</svg>
