<svg width="20" height="20" viewBox="0 0 20 20" fill="none" xmlns="http://www.w3.org/2000/svg">
<path d="M0.707113 10.7071C0.316586 10.3166 0.316587 9.68342 0.707116 9.29289L9.2929 0.707228C9.68342 0.31671 10.3166 0.316709 10.7071 0.707227L19.2929 9.29289C19.6834 9.68341 19.6834 10.3166 19.2929 10.7071L10.7071 19.2929C10.3166 19.6834 9.68342 19.6834 9.29289 19.2929L0.707113 10.7071Z" fill="#E99300"/>
<path d="M5.71692 10.3536C5.52165 10.1583 5.52165 9.84171 5.71692 9.64645L9.6469 5.71652C9.84216 5.52126 10.1587 5.52126 10.354 5.71652L14.284 9.64645C14.4792 9.84171 14.4792 10.1583 14.284 10.3536L10.354 14.2835C10.1587 14.4788 9.84216 14.4788 9.64689 14.2835L5.71692 10.3536Z" fill="#E99300" stroke="white"/>
</svg>
