<?xml version="1.0" encoding="UTF-8"?>
<svg width="101px" height="303px" viewBox="0 0 101 303" version="1.1" xmlns="http://www.w3.org/2000/svg" xmlns:xlink="http://www.w3.org/1999/xlink">
    <title>Group 7570</title>
    <defs>
        <path d="M17.4764,0 L52,0 C52,10.4934 60.5066,19 71,19 L71,255.686 C71,257.808 70.1571,259.843 68.6569,261.343 L59.3431,270.657 C57.8429,272.157 55.808,273 53.6863,273 L19,273 C19,262.507 10.4934,254 0,254 L0,18.1533 C0,16.127 0.769,14.1761 2.1516,12.6948 L11.628,2.5415 C13.141,0.9204 15.259,0 17.4764,0 Z" id="path-1"></path>
        <path d="M20.0192,0 L47,0 C47,18.7777 62.2223,34 81,34 L81,262.686 C81,264.808 80.1571,266.843 78.6569,268.343 L66.3431,280.657 C64.8429,282.157 62.808,283 60.6863,283 L34,283 C34,264.222 18.7777,249 0,249 L0,21.1119 C0,19.1103 0.7503,17.1815 2.1028,15.7061 L14.122,2.5942 C15.6373,0.9412 17.7768,0 20.0192,0 Z" id="path-3"></path>
    </defs>
    <g id="Page-1" stroke="none" stroke-width="1" fill="none" fill-rule="evenodd">
        <g id="Group-7570" transform="translate(0.500000, 0.500000)">
            <path d="M0,27.3228 C0,24.0164 1.21336,20.8251 3.40997,18.3539 L9.8737,11.0822 L15.6969,4.53109 C18.2588,1.64899 21.9308,0 25.7869,0 L47.5,0 L100,0 L100,277.201 C100,280.781 98.5777,284.215 96.0459,286.747 L84.747,298.046 C82.2152,300.578 78.7814,302 75.201,302 L0,302 L0,27.3228 Z" id="Path" stroke="#FFFFFF" fill="#333333" fill-rule="nonzero" opacity="0.5"></path>
            <g id="Group" opacity="0.6" transform="translate(9.500000, 9.500000)">
                <g id="Clipped" transform="translate(5.000000, 5.000000)">
                    <mask id="mask-2" fill="white">
                        <use xlink:href="#path-1"></use>
                    </mask>
                    <g id="Path"></g>
                    <path d="M52,0 L53,0 L53,-1 L52,-1 L52,0 Z M71,19 L72,19 L72,18 L71,18 L71,19 Z M68.6569,261.343 L67.9498,260.636 L67.9497,260.636 L68.6569,261.343 Z M59.3431,270.657 L60.0502,271.364 L60.0503,271.364 L59.3431,270.657 Z M19,273 L18,273 L18,274 L19,274 L19,273 Z M0,254 L-1,254 L-1,255 L0,255 L0,254 Z M2.1516,12.6948 L2.8826,13.3771 L2.1516,12.6948 Z M11.628,2.5415 L12.359,3.2238 L11.628,2.5415 Z M52,-1 L17.4764,-1 L17.4764,1 L52,1 L52,-1 Z M71,18 C61.0589,18 53,9.9411 53,0 L51,0 C51,11.0457 59.9543,20 71,20 L71,18 Z M72,255.686 L72,19 L70,19 L70,255.686 L72,255.686 Z M69.364,262.05 C71.0518,260.362 72,258.073 72,255.686 L70,255.686 C70,257.543 69.2625,259.323 67.9498,260.636 L69.364,262.05 Z M60.0503,271.364 L69.364,262.05 L67.9497,260.636 L58.636,269.95 L60.0503,271.364 Z M53.6863,274 C56.0732,274 58.3624,273.052 60.0502,271.364 L58.636,269.95 C57.3233,271.262 55.5428,272 53.6863,272 L53.6863,274 Z M19,274 L53.6863,274 L53.6863,272 L19,272 L19,274 Z M0,255 C9.9411,255 18,263.059 18,273 L20,273 C20,261.954 11.0457,253 0,253 L0,255 Z M-1,18.1533 L-1,254 L1,254 L1,18.1533 L-1,18.1533 Z M1.4205,12.0124 C-0.1349,13.679 -1,15.8737 -1,18.1533 L1,18.1533 C1,16.3803 1.6728,14.6733 2.8826,13.3771 L1.4205,12.0124 Z M10.8969,1.8591 L1.4205,12.0124 L2.8826,13.3771 L12.359,3.2238 L10.8969,1.8591 Z M17.4764,-1 C14.9818,-1 12.5991,0.0354 10.8969,1.8591 L12.359,3.2238 C13.6829,1.8053 15.5361,1 17.4764,1 L17.4764,-1 Z" id="Shape" fill="#E99300" fill-rule="nonzero" mask="url(#mask-2)"></path>
                </g>
                <g id="Clipped">
                    <mask id="mask-4" fill="white">
                        <use xlink:href="#path-3"></use>
                    </mask>
                    <g id="Path"></g>
                    <path d="M47,0 L48,0 L48,-1 L47,-1 L47,0 Z M81,34 L82,34 L82,33 L81,33 L81,34 Z M78.6569,268.343 L77.9498,267.636 L77.9497,267.636 L78.6569,268.343 Z M66.3431,280.657 L67.0502,281.364 L67.0503,281.364 L66.3431,280.657 Z M34,283 L33,283 L33,284 L34,284 L34,283 Z M0,249 L-1,249 L-1,250 L0,250 L0,249 Z M2.1028,15.7061 L2.8399,16.3818 L2.8399,16.3818 L2.1028,15.7061 Z M14.122,2.5942 L13.3848,1.9185 L13.3848,1.9185 L14.122,2.5942 Z M47,-1 L20.0192,-1 L20.0192,1 L47,1 L47,-1 Z M81,33 C62.7746,33 48,18.2254 48,0 L46,0 C46,19.33 61.67,35 81,35 L81,33 Z M82,262.686 L82,34 L80,34 L80,262.686 L82,262.686 Z M79.364,269.05 C81.0518,267.362 82,265.073 82,262.686 L80,262.686 C80,264.543 79.2625,266.323 77.9498,267.636 L79.364,269.05 Z M67.0503,281.364 L79.364,269.05 L77.9497,267.636 L65.636,279.95 L67.0503,281.364 Z M60.6863,284 C63.0732,284 65.3624,283.052 67.0502,281.364 L65.636,279.95 C64.3233,281.262 62.5428,282 60.6863,282 L60.6863,284 Z M34,284 L60.6863,284 L60.6863,282 L34,282 L34,284 Z M0,250 C18.2254,250 33,264.775 33,283 L35,283 C35,263.67 19.33,248 0,248 L0,250 Z M-1,21.1119 L-1,249 L1,249 L1,21.1119 L-1,21.1119 Z M1.3656,15.0303 C-0.15593,16.6902 -1,18.8602 -1,21.1119 L1,21.1119 C1,19.3605 1.6565,17.6728 2.8399,16.3818 L1.3656,15.0303 Z M13.3848,1.9185 L1.3656,15.0303 L2.8399,16.3818 L14.8591,3.2699 L13.3848,1.9185 Z M20.0192,-1 C17.4965,-1 15.0895,0.0588 13.3848,1.9185 L14.8591,3.2699 C16.185,1.8235 18.0571,1 20.0192,1 L20.0192,-1 Z" id="Shape" fill="#E99300" fill-rule="nonzero" mask="url(#mask-4)"></path>
                </g>
                <circle id="Oval" stroke="#E99300" cx="73" cy="8" r="2.5"></circle>
                <circle id="Oval" stroke="#E99300" cx="8" cy="275" r="2.5"></circle>
            </g>
        </g>
    </g>
</svg>